PathFileType	4	(X/Y/Z)	35_2_61_p1_0-611_filt_butterworth.trc
DataRate	CameraRate	NumFrames	NumMarkers	Units	OrigDataRate	OrigDataStartFrame	OrigNumFrames
60.0	60.0	5	27	m	60.0	76	611
Frame#	Time	RHip			RKnee			RAnkle			RBigToe			RSmallToe			RHeel			LHip			LKnee			LAnkle			LBigToe			LSmallToe			LHeel			Neck			Head			Nose			RShoulder			RElbow			RWrist			RThumb			RIndex			RPinky			LShoulder			LElbow			LWrist			LThumb			LIndex			LPinky			
		X1	Y1	Z1	X2	Y2	Z2	X3	Y3	Z3	X4	Y4	Z4	X5	Y5	Z5	X6	Y6	Z6	X7	Y7	Z7	X8	Y8	Z8	X9	Y9	Z9	X10	Y10	Z10	X11	Y11	Z11	X12	Y12	Z12	X13	Y13	Z13	X14	Y14	Z14	X15	Y15	Z15	X16	Y16	Z16	X17	Y17	Z17	X18	Y18	Z18	X19	Y19	Z19	X20	Y20	Z20	X21	Y21	Z21	X22	Y22	Z22	X23	Y23	Z23	X24	Y24	Z24	X25	Y25	Z25	X26	Y26	Z26	X27	Y27	Z27	
76	1.2666666666666666	0.3889763630243502	0.6350130581924559	0.4723890466608077	0.35837560373328053	0.8422770441808296	0.8516121768290704	0.4000103247319991	1.106489282283389	1.1943900916510337	0.3498042328640854	0.974712286849054	1.2879084709797985	0.4154700624969314	0.9594678740637053	1.2802035787109765	0.37529276813068685	1.2338030734337566	1.2187535166829164	0.190957928400581	0.7006169920037311	0.4430624300205591	0.19681254967977208	0.8663299458151832	0.8264341621636211	0.20099439497135863	1.1540426181726773	1.2059660525715636	0.18779677227067842	0.9339070974066059	1.2721629758806114	0.14370326220088117	0.9919072247180469	1.265801418760819	0.20779384420454694	1.2028892963577456	1.240008300266878	0.30166229282856666	0.3893111917994879	-0.03916425715729293	0.29523505363816854	0.2614507360278871	-0.2561966245715498	0.24059892300112073	0.23273881568418456	-0.11139366219093703	0.44373045972471276	0.363715285401699	0.06353980429404193	0.4913278471934713	0.4448813270827905	0.3251441765068456	0.3219603211500217	0.28199067047996557	0.3914669942905837	0.2415584984794993	0.25679429838014073	0.3530355359172759	0.23229490898723182	0.277531308667301	0.3767786414645746	0.23830971981233856	0.29079685107703945	0.4265298033120227	0.16486407323159252	0.5113452741481417	-0.008113288075554689	0.09868694698995993	0.7151107301370163	0.17529968230446846	0.11164884113686108	0.5823425663911277	0.3870140772417479	0.12951744651723693	0.4823759034770523	0.4688109465987401	0.09223096982606653	0.4553052642457489	0.49321582238160244	0.09259327264315365	0.5822954798214579	0.484557174919518
77	1.2833333333333334	0.38537754141805103	0.6260485532852551	0.47384390200752935	0.3596307248095698	0.8424278544143131	0.8524169665143839	0.3999845245857355	1.1065037428154814	1.1943739331830527	0.34937135802332053	0.9731592803054234	1.2876645533687918	0.41544979688938577	0.9595698253195356	1.2801938367775363	0.3741277733245846	1.2319917800138218	1.216922497552232	0.1918502744606433	0.6944570748706169	0.4411207107549014	0.19928306830649373	0.8616808618229045	0.8262161231287981	0.20097933331932255	1.1541449776674655	1.206041025048696	0.1877335534538079	0.9338217574634303	1.2721812570879807	0.14372989941122524	0.9918088891589842	1.2658177643983504	0.20781557965732228	1.2033050688925786	1.2401590336792416	0.3030534300415949	0.3897289328543153	-0.03943170839361558	0.29712344924771034	0.2620600483551134	-0.2577088398690138	0.24326394323037376	0.2338188420612545	-0.11260486145179892	0.4469744945709051	0.3561964223133964	0.06600483417638098	0.48367060748255647	0.4368295443326842	0.3292578449314767	0.31883819533996266	0.28057395030734616	0.372603785995845	0.24262689640839277	0.23050268898381374	0.3329364960553573	0.2344061029487572	0.25801340772531545	0.3532068235782097	0.23309737448523063	0.29175535081356335	0.39651744285216456	0.16571335466639797	0.511461418514274	-0.009639234054252533	0.09920171780481374	0.7142016876084841	0.1708034416898251	0.11261648155483098	0.586173066902291	0.3803847763703727	0.12989120576779126	0.5035133548517204	0.4596300234448937	0.09415083506921065	0.4862930002978122	0.4817055262444414	0.0940243801759851	0.5959417431501178	0.47342068655569103
78	1.3	0.3840104804380482	0.6201976943518572	0.4751598424395649	0.36106718823811423	0.8425564989978509	0.8518561436852388	0.399958126170381	1.1064802794096158	1.1943550255810795	0.34959810222096205	0.9740861724771974	1.2873917257427	0.4154163993082225	0.9596970281654796	1.2801741730693716	0.3725248555410259	1.2307755849966315	1.2163614590018688	0.19251678995297372	0.6895354505140728	0.4393509155962736	0.20130895402337468	0.860253007809768	0.8262546160697886	0.2009915097043495	1.1542827116819199	1.2060747058443906	0.18776041793697112	0.9336266756373482	1.2721760707463576	0.1438224026036821	0.9914649941498592	1.2658132688418249	0.20786876109718172	1.203977638094501	1.2403172542266994	0.30398482300889745	0.39002310088694714	-0.03965579403051916	0.2984791048256583	0.26252357582848945	-0.2581967243257286	0.2459534142942663	0.23472632778094438	-0.11371467568291171	0.4490147818378053	0.3521092543328768	0.06731176068501626	0.47866286918011436	0.43310543218081504	0.331834458485192	0.3157437960781393	0.2792258233252184	0.35565098845637916	0.24185774770872334	0.2127872255292796	0.31375262642861806	0.23625990811979802	0.23113132080912088	0.3327751040513134	0.22891379979177953	0.28412632395837656	0.36744937739849104	0.16608398321322995	0.5107146137295636	-0.011341876846996897	0.09921080399994832	0.712040005321183	0.1670975780204068	0.11365979278515145	0.5903324462919847	0.37308660301918234	0.13002794009814486	0.5177867245938718	0.4504998461579871	0.09689384528822147	0.5148347091561196	0.4696441092990895	0.09627352482022437	0.6011825346431605	0.463120613601687
79	1.3166666666666669	0.3858991204132755	0.61801365686542	0.47645679812549074	0.36213188659212203	0.843027708336642	0.8497611416043224	0.3999559417807979	1.1063781999183755	1.1943370582467585	0.3501697828573904	0.9762234699279037	1.2872978518785996	0.4154014923976301	0.9597967705499513	1.2801759878128078	0.3712820692621758	1.2302057868746272	1.2164339479186326	0.19350654699659883	0.6837456663942256	0.4381703308801465	0.20255699321617376	0.8616229606270494	0.8261993246379563	0.20103383697853539	1.1544430449179373	1.206027321189806	0.18809723083779578	0.9332774989358753	1.2721369347913722	0.1439477475869651	0.9910119815220585	1.2657867490759185	0.20795380059143237	1.204494080612226	1.2402824020114234	0.30438706389940395	0.3901589491429791	-0.0397797957431395	0.30051731745601573	0.26203580241830915	-0.25794708230765945	0.24825341028128037	0.23502555130990965	-0.11462187784037914	0.44962674300480454	0.3511250068971947	0.06757276391830688	0.4760356561276249	0.42841925993679797	0.3338688823029259	0.31304768024491064	0.27569758123718446	0.34118319332676017	0.240029538791448	0.20502887960861915	0.293943174771183	0.23714279241832192	0.209733661086892	0.3136564511768276	0.22787554716225253	0.26788163764223377	0.3439243794803059	0.1665200927249616	0.5095078585929923	-0.01338988012383869	0.09855395611008097	0.7104744796107973	0.1625398635272308	0.11408990917338893	0.5945256605675847	0.36596048985055923	0.12944950932314112	0.5253186931678943	0.44044268731362535	0.09942709561830178	0.5362753955835263	0.4597141661941138	0.09821179023168042	0.6027929749117433	0.4550712128164487
80	1.3333333333333333	0.3894901590387203	0.6176999840509482	0.4775957599964193	0.36255483344602213	0.8438320235537782	0.8471957528421135	0.3999994097719451	1.1062311366899054	1.194329421378244	0.35051732324002616	0.9777421341397972	1.287455956720419	0.41541023397483523	0.9597101539731923	1.2802622523035512	0.3707881773308028	1.2300669697296869	1.2165453562831832	0.1948139060049905	0.6776508329988471	0.4375540182902804	0.2032182530841	0.8653414114139627	0.8256969323454452	0.20108534168843936	1.1546407808017933	1.2059507580073843	0.18888666509763777	0.9331590148411655	1.2721093362429867	0.1439379959107728	0.9911206025640219	1.2657940535466332	0.20797289473380234	1.20428416778539	1.2397489798712997	0.3048324832166064	0.39030427722758837	-0.03987931095798149	0.30389935820571473	0.2598993790166901	-0.25714145098414687	0.24990058272411053	0.23474860710987522	-0.11520921401368277	0.44956336102281247	0.35119730163504087	0.06748235470979302	0.4751357798955691	0.4211605679665378	0.3357284305976288	0.3114515161264569	0.2717501780469344	0.32845568031785743	0.23809984538207205	0.20366678954355663	0.2751852178469393	0.23727803292981525	0.19878805528424207	0.29579105893255825	0.23065817301015837	0.24902272886040272	0.32705249980851897	0.16753297056561195	0.5080278066975159	-0.01628803666982809	0.09713207134509824	0.7098326366373543	0.15649339227560768	0.1131683433948883	0.5986782671425884	0.35891333881411625	0.1273852198269834	0.531429174338447	0.4274722020520473	0.10086999562287721	0.5519789483803004	0.4515658322720326	0.09922152209924652	0.6030213757628698	0.44932033821087664
